<svg xmlns="http://www.w3.org/2000/svg" width="25" height="24" viewBox="0 0 25 24" fill="none" class="mdl-js">
<g clip-path="url(#clip0_640_2961)">
<path d="M12.4592 24.008L11.7621 23.4105C10.8011 22.6058 2.41016 15.3591 2.41016 10.0583C2.41016 4.50839 6.90927 0.00927734 12.4592 0.00927734C18.0091 0.00927734 22.5082 4.50839 22.5082 10.0583C22.5082 15.3592 14.1172 22.6059 13.1602 23.4145L12.4592 24.008ZM12.4592 2.18217C8.11137 2.18709 4.58802 5.71045 4.58309 10.0582C4.58309 13.3883 9.74553 18.7081 12.4592 21.1429C15.1729 18.7071 20.3352 13.3843 20.3352 10.0582C20.3303 5.71045 16.807 2.18714 12.4592 2.18217Z" fill="#AF2C2C"/>
<path d="M12.4599 14.0416C10.26 14.0416 8.47656 12.2582 8.47656 10.0583C8.47656 7.85836 10.26 6.07495 12.4599 6.07495C14.6598 6.07495 16.4432 7.85836 16.4432 10.0583C16.4432 12.2582 14.6599 14.0416 12.4599 14.0416ZM12.4599 8.06658C11.3599 8.06658 10.4682 8.95828 10.4682 10.0582C10.4682 11.1582 11.3599 12.0499 12.4599 12.0499C13.5599 12.0499 14.4516 11.1582 14.4516 10.0582C14.4516 8.95828 13.5599 8.06658 12.4599 8.06658Z" fill="#AF2C2C"/>
</g>
<defs>
<clipPath id="clip0_640_2961">
<rect width="24" height="24" fill="white" transform="translate(0.5)"/>
</clipPath>
</defs>
</svg>