<svg xmlns="http://www.w3.org/2000/svg" width="16" height="15" viewBox="0 0 16 15" fill="none" class="mdl-js">
<g clip-path="url(#clip0_507_2164)">
<path d="M12.3555 9.29195C12.0484 8.9722 11.678 8.80124 11.2855 8.80124C10.8961 8.80124 10.5225 8.96903 10.2028 9.28878L9.20235 10.286C9.12004 10.2417 9.03772 10.2005 8.95858 10.1594C8.84461 10.1024 8.73697 10.0486 8.64516 9.9916C7.70807 9.39642 6.85645 8.62079 6.03966 7.61721C5.64393 7.11701 5.378 6.69595 5.18488 6.26856C5.44448 6.03112 5.68509 5.78418 5.91936 5.54674C6.008 5.4581 6.09665 5.36629 6.18529 5.27765C6.85012 4.61282 6.85012 3.75171 6.18529 3.08688L5.32101 2.2226C5.22287 2.12446 5.12156 2.02315 5.02659 1.92184C4.83664 1.72556 4.63719 1.52295 4.43141 1.333C4.12432 1.02907 3.75708 0.867615 3.37085 0.867615C2.98461 0.867615 2.61104 1.02907 2.29446 1.333C2.29129 1.33616 2.29129 1.33616 2.28813 1.33933L1.21174 2.42521C0.806507 2.83044 0.575399 3.32432 0.524746 3.89734C0.448765 4.82176 0.721029 5.68288 0.929975 6.2464C1.44284 7.62988 2.20898 8.91205 3.35185 10.286C4.7385 11.9418 6.4069 13.2493 8.31274 14.1705C9.04089 14.5156 10.0128 14.924 11.0987 14.9936C11.1652 14.9968 11.2348 15 11.2981 15C12.0295 15 12.6436 14.7372 13.1248 14.2148C13.128 14.2085 13.1343 14.2054 13.1375 14.199C13.3021 13.9996 13.4921 13.8191 13.6915 13.626C13.8277 13.4962 13.967 13.3601 14.1031 13.2176C14.4165 12.8915 14.5811 12.5116 14.5811 12.1222C14.5811 11.7297 14.4133 11.3529 14.0936 11.0363L12.3555 9.29195ZM13.4889 12.6256C13.4857 12.6256 13.4857 12.6288 13.4889 12.6256C13.3654 12.7586 13.2388 12.8789 13.1027 13.0118C12.8969 13.2081 12.688 13.4139 12.4917 13.645C12.1719 13.9869 11.7952 14.1484 11.3013 14.1484C11.2538 14.1484 11.2032 14.1484 11.1557 14.1452C10.2154 14.085 9.34165 13.7178 8.68631 13.4044C6.89444 12.5369 5.32101 11.3054 4.01352 9.74467C2.93396 8.4435 2.21215 7.24048 1.7341 5.94881C1.43968 5.16051 1.33204 4.54634 1.37953 3.96698C1.41118 3.59658 1.55365 3.28949 1.81641 3.02673L2.89597 1.94717C3.0511 1.80154 3.21572 1.72239 3.37718 1.72239C3.57663 1.72239 3.73809 1.8427 3.83939 1.944C3.84256 1.94717 3.84573 1.95034 3.84889 1.9535C4.04201 2.13396 4.22563 2.32074 4.41874 2.52019C4.51689 2.6215 4.61819 2.7228 4.7195 2.82728L5.58378 3.69156C5.91936 4.02714 5.91936 4.33739 5.58378 4.67297C5.49197 4.76478 5.40332 4.85659 5.31151 4.94523C5.04558 5.2175 4.79232 5.47076 4.51689 5.7177C4.51055 5.72403 4.50422 5.7272 4.50106 5.73353C4.22879 6.00579 4.27945 6.27173 4.33643 6.45218C4.3396 6.46168 4.34276 6.47117 4.34593 6.48067C4.57071 7.0252 4.88729 7.53807 5.3685 8.14908L5.37167 8.15224C6.24544 9.22863 7.16671 10.0676 8.18294 10.7103C8.31274 10.7926 8.44571 10.859 8.57234 10.9224C8.68631 10.9793 8.79395 11.0332 8.88576 11.0902C8.89843 11.0965 8.91109 11.106 8.92375 11.1123C9.03139 11.1661 9.1327 11.1915 9.23717 11.1915C9.49994 11.1915 9.66456 11.0268 9.71838 10.973L10.8011 9.8903C10.9087 9.78266 11.0797 9.65286 11.2791 9.65286C11.4754 9.65286 11.6369 9.77632 11.735 9.88396C11.7382 9.88713 11.7382 9.88713 11.7414 9.8903L13.4857 11.6347C13.8118 11.9576 13.8118 12.29 13.4889 12.6256Z" fill="#AF2C2C"/>
<path d="M8.60766 3.56811C9.43711 3.70741 10.1906 4.09998 10.7921 4.70149C11.3936 5.303 11.783 6.05647 11.9255 6.88593C11.9603 7.09487 12.1407 7.2405 12.3465 7.2405C12.3719 7.2405 12.394 7.23734 12.4193 7.23417C12.6536 7.19618 12.8087 6.97457 12.7708 6.7403C12.5998 5.73672 12.1249 4.82179 11.3999 4.09681C10.675 3.37183 9.76003 2.89695 8.75645 2.726C8.52218 2.68801 8.30373 2.84313 8.26258 3.07424C8.22142 3.30535 8.37338 3.53012 8.60766 3.56811Z" fill="#AF2C2C"/>
<path d="M15.4837 6.61682C15.2019 4.96424 14.4231 3.46046 13.2264 2.26377C12.0297 1.06708 10.526 0.288277 8.87338 0.00651579C8.64227 -0.0346403 8.42383 0.123652 8.38267 0.35476C8.34468 0.589033 8.49981 0.807477 8.73408 0.848633C10.2094 1.09873 11.5549 1.79839 12.6249 2.86528C13.695 3.93534 14.3915 5.28083 14.6416 6.75611C14.6764 6.96506 14.8568 7.11069 15.0626 7.11069C15.0879 7.11069 15.1101 7.10752 15.1354 7.10436C15.3665 7.06953 15.5248 6.84792 15.4837 6.61682Z" fill="#AF2C2C"/>
</g>
<defs>
<clipPath id="clip0_507_2164">
<rect width="15" height="15" fill="white" transform="translate(0.5)"/>
</clipPath>
</defs>
</svg>