<svg xmlns="http://www.w3.org/2000/svg" width="16" height="15" viewBox="0 0 16 15" fill="none" class="mdl-js">
<path d="M8.00005 0C4.94464 0 2.45898 2.48566 2.45898 5.54107C2.45898 6.54694 2.91009 7.62875 2.929 7.67438C3.07469 8.02021 3.36218 8.55737 3.56948 8.87223L7.3687 14.6287C7.52417 14.8647 7.75429 15 8.00005 15C8.24582 15 8.47593 14.8647 8.63141 14.6291L12.431 8.87223C12.6386 8.55737 12.9257 8.02021 13.0714 7.67438C13.0903 7.62907 13.5411 6.54726 13.5411 5.54107C13.5411 2.48566 11.0555 0 8.00005 0ZM12.4704 7.42145C12.3403 7.73142 12.0727 8.23109 11.8866 8.51336L8.08708 14.2702C8.01211 14.384 7.98832 14.384 7.91335 14.2702L4.11381 8.51336C3.92769 8.23109 3.66009 7.73109 3.53004 7.42112C3.5245 7.40776 3.11087 6.41199 3.11087 5.54107C3.11087 2.84518 5.30416 0.65189 8.00005 0.65189C10.6959 0.65189 12.8892 2.84518 12.8892 5.54107C12.8892 6.4133 12.4746 7.41167 12.4704 7.42145Z" fill="#AF2C2C"/>
<path d="M7.99991 2.60791C6.38225 2.60791 5.06641 3.92408 5.06641 5.54142C5.06641 7.15876 6.38225 8.47493 7.99991 8.47493C9.61758 8.47493 10.9334 7.15876 10.9334 5.54142C10.9334 3.92408 9.61758 2.60791 7.99991 2.60791ZM7.99991 7.82303C6.74209 7.82303 5.7183 6.79957 5.7183 5.54142C5.7183 4.28327 6.74209 3.2598 7.99991 3.2598C9.25774 3.2598 10.2815 4.28327 10.2815 5.54142C10.2815 6.79957 9.25774 7.82303 7.99991 7.82303Z" fill="#AF2C2C"/>
</svg>