<svg xmlns="http://www.w3.org/2000/svg" width="16" height="15" viewBox="0 0 16 15" fill="none" class="mdl-js">
<g clip-path="url(#clip0_507_2178)">
<path d="M8 0C6.51664 0 5.0666 0.439867 3.83323 1.26398C2.59986 2.08809 1.63856 3.25943 1.07091 4.62987C0.50325 6.00032 0.354725 7.50832 0.644114 8.96318C0.933503 10.418 1.64781 11.7544 2.6967 12.8033C3.7456 13.8522 5.08197 14.5665 6.53683 14.8559C7.99168 15.1453 9.49968 14.9968 10.8701 14.4291C12.2406 13.8614 13.4119 12.9001 14.236 11.6668C15.0601 10.4334 15.5 8.98336 15.5 7.5C15.4979 5.51154 14.707 3.60513 13.3009 2.19907C11.8949 0.793018 9.98847 0.00215068 8 0V0ZM8 13.75C6.76387 13.75 5.5555 13.3834 4.52769 12.6967C3.49988 12.0099 2.6988 11.0338 2.22576 9.89177C1.75271 8.74973 1.62894 7.49307 1.8701 6.28069C2.11125 5.06831 2.70651 3.95466 3.58059 3.08058C4.45466 2.2065 5.56831 1.61125 6.78069 1.37009C7.99307 1.12893 9.24974 1.25271 10.3918 1.72575C11.5338 2.1988 12.5099 2.99988 13.1967 4.02769C13.8834 5.05549 14.25 6.26387 14.25 7.5C14.2482 9.15705 13.5891 10.7457 12.4174 11.9174C11.2457 13.0891 9.65705 13.7482 8 13.75Z" fill="#AF2C2C"/>
<path d="M7.99905 3.75C7.83329 3.75 7.67432 3.81585 7.55711 3.93306C7.4399 4.05027 7.37405 4.20924 7.37405 4.375V7.07813L5.26718 8.39813C5.12628 8.48614 5.02612 8.62653 4.98873 8.7884C4.95134 8.95026 4.97978 9.12035 5.0678 9.26125C5.15582 9.40215 5.2962 9.50231 5.45807 9.5397C5.61994 9.57709 5.79003 9.54864 5.93093 9.46063L8.33093 7.96063C8.4216 7.90381 8.49618 7.82467 8.5475 7.73077C8.59883 7.63688 8.62518 7.53138 8.62405 7.42438V4.375C8.62405 4.20924 8.5582 4.05027 8.44099 3.93306C8.32378 3.81585 8.16481 3.75 7.99905 3.75Z" fill="#AF2C2C"/>
</g>
<defs>
<clipPath id="clip0_507_2178">
<rect width="15" height="15" fill="white" transform="translate(0.5)"/>
</clipPath>
</defs>
</svg>